<svg id="Layer_1" data-name="Layer 1" xmlns="http://www.w3.org/2000/svg" xmlns:xlink="http://www.w3.org/1999/xlink" viewBox="0 0 232 70.67"><defs><style>.cls-1{opacity:0.39;}.cls-2{fill:url(#linear-gradient);}.cls-3{opacity:0.54;mix-blend-mode:screen;fill:url(#linear-gradient-2);}.cls-11,.cls-12,.cls-13,.cls-14,.cls-15,.cls-4{fill:none;stroke-miterlimit:10;}.cls-12,.cls-15,.cls-4{stroke:#004a9b;}.cls-11,.cls-4{stroke-width:0.5px;}.cls-5{fill:#4bbe00;}.cls-10,.cls-11,.cls-12,.cls-13,.cls-16,.cls-5,.cls-9{fill-rule:evenodd;}.cls-6{fill:url(#linear-gradient-3);}.cls-7{mask:url(#mask);}.cls-8{fill:#fff;}.cls-9{fill:url(#linear-gradient-4);}.cls-10{fill:url(#linear-gradient-5);}.cls-11,.cls-13{stroke:#4bbe00;}.cls-12,.cls-13{stroke-width:0.25px;}.cls-14{stroke:#5cad05;}.cls-16{fill:#b1b3b4;}.cls-17{fill:#60c300;}.cls-18{fill:url(#linear-gradient-6);}.cls-19{fill:url(#linear-gradient-7);}.cls-20{fill:url(#linear-gradient-8);}.cls-21{fill:url(#linear-gradient-9);}.cls-22{fill:url(#linear-gradient-10);}.cls-23{fill:url(#linear-gradient-11);}.cls-24{mask:url(#mask-2);}</style><linearGradient id="linear-gradient" x1="30.99" y1="28.22" x2="27.49" y2="39.22" gradientUnits="userSpaceOnUse"><stop offset="0" stop-color="#fff"/><stop offset="1"/></linearGradient><linearGradient id="linear-gradient-2" x1="139.04" y1="42.36" x2="139.04" y2="14.11" gradientUnits="userSpaceOnUse"><stop offset="0" stop-color="#fff"/><stop offset="0.01" stop-color="#f6f6f6"/><stop offset="0.05" stop-color="#c8c8c8"/><stop offset="0.09" stop-color="#9d9d9d"/><stop offset="0.14" stop-color="#777"/><stop offset="0.2" stop-color="#575757"/><stop offset="0.25" stop-color="#3b3b3b"/><stop offset="0.32" stop-color="#252525"/><stop offset="0.4" stop-color="#141414"/><stop offset="0.49" stop-color="#090909"/><stop offset="0.63" stop-color="#020202"/><stop offset="1"/></linearGradient><linearGradient id="linear-gradient-3" x1="36.76" y1="33.04" x2="19.82" y2="42.83" gradientUnits="userSpaceOnUse"><stop offset="0" stop-color="#0c68ba"/><stop offset="0.62" stop-color="#0557a8"/><stop offset="1" stop-color="#004a9b"/></linearGradient><mask id="mask" x="6.52" y="15.51" width="46.31" height="41.73" maskUnits="userSpaceOnUse"><g class="cls-1"><path class="cls-2" d="M6.52,32.91s21.73-10.06,46.31-1.08L41.75,57.24,12.42,44Z"/></g></mask><linearGradient id="linear-gradient-4" x1="26.8" y1="4.12" x2="7.8" y2="23.62" xlink:href="#linear-gradient-3"/><linearGradient id="linear-gradient-5" x1="25.81" y1="3.15" x2="6.81" y2="22.65" xlink:href="#linear-gradient-3"/><linearGradient id="linear-gradient-6" x1="95.23" y1="37" x2="95.23" y2="24.75" gradientUnits="userSpaceOnUse"><stop offset="0" stop-color="#004a9b"/><stop offset="0.09" stop-color="#024f9e"/><stop offset="0.33" stop-color="#0356a2"/><stop offset="1" stop-color="#0458a3"/></linearGradient><linearGradient id="linear-gradient-7" x1="120.6" y1="37" x2="120.6" y2="24.75" xlink:href="#linear-gradient-6"/><linearGradient id="linear-gradient-8" x1="153.92" y1="37" x2="153.92" y2="24.75" xlink:href="#linear-gradient-6"/><linearGradient id="linear-gradient-9" x1="189.48" y1="37" x2="189.48" y2="24.75" xlink:href="#linear-gradient-6"/><linearGradient id="linear-gradient-10" x1="215.85" y1="37" x2="215.85" y2="24.75" xlink:href="#linear-gradient-6"/><linearGradient id="linear-gradient-11" x1="67.85" y1="37" x2="67.85" y2="24.75" xlink:href="#linear-gradient-6"/><mask id="mask-2" x="10.29" y="7.69" width="257.5" height="41" maskUnits="userSpaceOnUse"><ellipse class="cls-3" cx="139.04" cy="25.03" rx="128.75" ry="17.33"/></mask></defs><title>logo-atsnet</title><path class="cls-4" d="M52.83,27.36A113,113,0,0,0,25.54,15.56c-.61,1.14-1.21,2.28-1.8,3.43a78.11,78.11,0,0,1,12,5.83,77.57,77.57,0,0,1-8.1,18.73A111.63,111.63,0,0,1,15.2,38.64c-.5,1.4-1,2.8-1.46,4.21A168.89,168.89,0,0,0,41,54.64,113,113,0,0,0,52.83,27.36Zm0,0"/><path class="cls-5" d="M34.18,25.37a68.61,68.61,0,0,0-16.64-7.19,103,103,0,0,0-7.19,16.64A103.21,103.21,0,0,0,27,42a68.72,68.72,0,0,0,7.19-16.64Zm0,0"/><path class="cls-6" d="M52.83,27.31A113,113,0,0,0,25.54,15.51c-.61,1.14-1.21,2.28-1.8,3.43a78.11,78.11,0,0,1,12,5.83,77.57,77.57,0,0,1-8.1,18.73A111.63,111.63,0,0,1,15.2,38.59c-.5,1.4-1,2.8-1.46,4.21A168.89,168.89,0,0,0,41,54.59,113,113,0,0,0,52.83,27.31Zm0,0"/><g class="cls-7"><path class="cls-8" d="M34.18,25.37a68.61,68.61,0,0,0-16.64-7.19,103,103,0,0,0-7.19,16.64A103.21,103.21,0,0,0,27,42a68.72,68.72,0,0,0,7.19-16.64Zm0,0"/><path class="cls-8" d="M52.83,27.31A113,113,0,0,0,25.54,15.51c-.61,1.14-1.21,2.28-1.8,3.43a78.11,78.11,0,0,1,12,5.83,77.57,77.57,0,0,1-8.1,18.73A111.63,111.63,0,0,1,15.2,38.59c-.5,1.4-1,2.8-1.46,4.21A168.89,168.89,0,0,0,41,54.59,113,113,0,0,0,52.83,27.31Zm0,0"/></g><path class="cls-5" d="M6,10.54a18.08,18.08,0,0,0,4.37,1.89,26.65,26.65,0,0,0,1.89-4.37A27.43,27.43,0,0,0,7.89,6.17,18.09,18.09,0,0,0,6,10.54Zm0,0"/><path class="cls-9" d="M25.57,9a33.51,33.51,0,0,0-8.06-3.49A50,50,0,0,0,14,13.6a49.86,49.86,0,0,0,8.06,3.49A33.33,33.33,0,0,0,25.57,9Zm0,0"/><path class="cls-10" d="M6.52,20.55a22,22,0,0,0,5.34,2.31,33,33,0,0,0,2.31-5.34,33.26,33.26,0,0,0-5.34-2.31,22,22,0,0,0-2.31,5.34Zm0,0"/><path class="cls-11" d="M6,10.59a18.08,18.08,0,0,0,4.37,1.89,26.65,26.65,0,0,0,1.89-4.37A27.43,27.43,0,0,0,7.89,6.22,18.09,18.09,0,0,0,6,10.59Zm0,0"/><path class="cls-12" d="M25.57,9.07a33.51,33.51,0,0,0-8.06-3.49A50,50,0,0,0,14,13.65a49.86,49.86,0,0,0,8.06,3.49,33.33,33.33,0,0,0,3.48-8.06Zm0,0"/><path class="cls-12" d="M6.52,20.6a22,22,0,0,0,5.34,2.31,33,33,0,0,0,2.31-5.34,33.26,33.26,0,0,0-5.34-2.31A22,22,0,0,0,6.52,20.6Zm0,0"/><path class="cls-13" d="M34.18,25.42a68.61,68.61,0,0,0-16.64-7.19,103,103,0,0,0-7.19,16.64A103.21,103.21,0,0,0,27,42.05a68.72,68.72,0,0,0,7.19-16.64Zm0,0"/><rect class="cls-14" x="123.92" y="25.21" width="4.88" height="4.88"/><rect class="cls-14" x="193.79" y="43.58" width="4.88" height="4.88"/><polygon class="cls-15" points="90.29 25.13 90.29 18.63 96.42 18.63 96.42 25.13 103.54 25.13 103.54 30.13 96.17 30.13 96.17 48.63 90.29 48.63 90.29 30.13 86.92 30.13 86.92 25.13 90.29 25.13"/><path class="cls-15" d="M121.79,25.25v5h-7.9a1,1,0,0,0-1,1V33.9a1,1,0,0,0,1,1H131a3.55,3.55,0,0,1,3.55,3.55v6.66A3.55,3.55,0,0,1,131,48.63H106.67V43.75h20.7a.8.8,0,0,0,.8-.8v-3.4a.8.8,0,0,0-.8-.8H110.62a4,4,0,0,1-4-4V29.2a4,4,0,0,1,4-4Z"/><path class="cls-15" d="M139,48.75V32.44a7.31,7.31,0,0,1,7.31-7.31h15.12a7.31,7.31,0,0,1,7.31,7.31V48.63h-5.87V33.49A3.49,3.49,0,0,0,159.42,30H148.54A3.49,3.49,0,0,0,145,33.49V48.75Z"/><path class="cls-15" d="M204.54,39.13V31.34a6.09,6.09,0,0,0-6.09-6.09H181a6.61,6.61,0,0,0-6.61,6.61V42A6.61,6.61,0,0,0,181,48.63h10.51v-5H181.22a1.3,1.3,0,0,1-1.3-1.3v-3.2Zm-24.12-7.77a1.23,1.23,0,0,1,1.23-1.23h15.16A1.23,1.23,0,0,1,198,31.36V34.5a.87.87,0,0,1-.87.87H180.42Z"/><polygon class="cls-15" points="210.54 18.63 210.54 25.25 207.17 25.25 207.17 30.13 210.54 30.13 210.54 48.63 216.79 48.63 216.79 30.13 224.54 30.13 224.54 25.13 216.54 25.13 216.54 18.63 210.54 18.63"/><path class="cls-15" d="M76.74,25.13H67.21a.17.17,0,0,0-.17.17V30a.17.17,0,0,0,.17.17h7.9a2.18,2.18,0,0,1,2.18,2.18v1.86a.17.17,0,0,1-.17.17H56.82a4.9,4.9,0,0,0-4.9,4.9v4.49a4.9,4.9,0,0,0,4.9,4.9H76.74a7,7,0,0,0,7-7v-9.4A7,7,0,0,0,76.74,25.13ZM77,41.27a3.1,3.1,0,0,1-3.1,3.1H61.4a3.1,3.1,0,0,1-3.1-3.1V40.15a2,2,0,0,1,2-2H76.88a.17.17,0,0,1,.17.17Z"/><path class="cls-16" d="M73.56,60.44a1.56,1.56,0,0,1-.7,1.35,2.34,2.34,0,0,1-.79.34,4.24,4.24,0,0,1-1,.12l-.5,0-.48,0-.43-.07L69.26,62v-.84a4.58,4.58,0,0,0,.82.21,6.53,6.53,0,0,0,1,.08,3.34,3.34,0,0,0,.71-.07,1.35,1.35,0,0,0,.48-.2.79.79,0,0,0,.27-.31,1,1,0,0,0,.08-.42.69.69,0,0,0-.14-.44,1.4,1.4,0,0,0-.38-.33,3.23,3.23,0,0,0-.53-.26L71,59.21l-.61-.27a2.35,2.35,0,0,1-.53-.35,1.53,1.53,0,0,1-.37-.48,1.33,1.33,0,0,1-.15-.64,1.57,1.57,0,0,1,.14-.64,1.55,1.55,0,0,1,.42-.56,2.14,2.14,0,0,1,.73-.4,3.31,3.31,0,0,1,1.07-.15h.35l.38,0,.37.06.35.07v.78a5,5,0,0,0-.75-.16,4.74,4.74,0,0,0-.72-.06,1.89,1.89,0,0,0-1.09.25.77.77,0,0,0-.35.67.72.72,0,0,0,.14.44,1.57,1.57,0,0,0,.37.33,3.19,3.19,0,0,0,.53.26l.61.25q.31.12.61.28a2.35,2.35,0,0,1,.53.36,1.56,1.56,0,0,1,.37.48,1.39,1.39,0,0,1,.15.66Zm11.28-1.49a4.72,4.72,0,0,1-.2,1.47,2.93,2.93,0,0,1-.54,1,2.14,2.14,0,0,1-.8.6,2.55,2.55,0,0,1-2,0,2,2,0,0,1-.75-.64,2.92,2.92,0,0,1-.45-1A5.64,5.64,0,0,1,79.92,59a4.84,4.84,0,0,1,.2-1.46,3,3,0,0,1,.54-1,2.11,2.11,0,0,1,.8-.6,2.39,2.39,0,0,1,1-.2,2.44,2.44,0,0,1,1.06.22,2.07,2.07,0,0,1,.75.64,2.91,2.91,0,0,1,.45,1,5.44,5.44,0,0,1,.15,1.35Zm-.9.06a6,6,0,0,0-.08-1,2.56,2.56,0,0,0-.28-.8,1.41,1.41,0,0,0-.49-.52,1.37,1.37,0,0,0-.72-.18,1.25,1.25,0,0,0-.7.2,1.48,1.48,0,0,0-.48.53,2.79,2.79,0,0,0-.28.79,4.75,4.75,0,0,0-.09,1,5.67,5.67,0,0,0,.09,1,2.69,2.69,0,0,0,.27.79,1.44,1.44,0,0,0,.49.52,1.32,1.32,0,0,0,.71.18,1.23,1.23,0,0,0,.7-.2,1.51,1.51,0,0,0,.49-.53,2.65,2.65,0,0,0,.28-.79,4.76,4.76,0,0,0,.09-1Zm11.4,3.15H91.7V55.81h.88v5.6h2.77Zm11.08-2.21a2.9,2.9,0,0,1-.15.95,1.88,1.88,0,0,1-1.14,1.18,2.59,2.59,0,0,1-1,.17,2.92,2.92,0,0,1-1-.16,1.78,1.78,0,0,1-.67-.44,1.7,1.7,0,0,1-.38-.68,3.14,3.14,0,0,1-.12-.89V55.81h.86V60a2.65,2.65,0,0,0,.07.66,1.14,1.14,0,0,0,.23.47,1,1,0,0,0,.42.29,1.8,1.8,0,0,0,.62.1,1.25,1.25,0,0,0,1-.4,1.73,1.73,0,0,0,.33-1.12V55.81h.86Zm10.82,2a4,4,0,0,1-1.55.32l-.4,1.35h-.74l.32-1.43a2.26,2.26,0,0,1-1.5-1,3.79,3.79,0,0,1-.52-2.11,4.47,4.47,0,0,1,.2-1.37,2.88,2.88,0,0,1,.57-1,2.5,2.5,0,0,1,.89-.67,2.86,2.86,0,0,1,1.17-.23,4,4,0,0,1,.82.08,3.44,3.44,0,0,1,.73.23v.85a3.29,3.29,0,0,0-.71-.29,3.23,3.23,0,0,0-.81-.1,2,2,0,0,0-.81.16,1.66,1.66,0,0,0-.61.49,2.22,2.22,0,0,0-.39.78,3.64,3.64,0,0,0-.14,1,2.94,2.94,0,0,0,.5,1.85,1.76,1.76,0,0,0,1.46.63,3.21,3.21,0,0,0,.78-.1,3.89,3.89,0,0,0,.72-.26Zm11.29-3a4.76,4.76,0,0,1-.2,1.47,2.93,2.93,0,0,1-.54,1,2.13,2.13,0,0,1-.8.6,2.56,2.56,0,0,1-2,0,1.92,1.92,0,0,1-.75-.64,2.9,2.9,0,0,1-.45-1,5.7,5.7,0,0,1-.15-1.35,4.88,4.88,0,0,1,.2-1.46,3,3,0,0,1,.54-1,2.1,2.1,0,0,1,.8-.6,2.4,2.4,0,0,1,1-.2,2.45,2.45,0,0,1,1.06.22,2.08,2.08,0,0,1,.75.64,2.91,2.91,0,0,1,.45,1,5.44,5.44,0,0,1,.15,1.35Zm-.9.06a5.54,5.54,0,0,0-.09-1,2.44,2.44,0,0,0-.27-.8,1.4,1.4,0,0,0-.48-.52,1.38,1.38,0,0,0-.72-.18,1.23,1.23,0,0,0-.7.2,1.51,1.51,0,0,0-.48.53,2.83,2.83,0,0,0-.28.79,4.66,4.66,0,0,0-.09,1,5.56,5.56,0,0,0,.09,1,2.66,2.66,0,0,0,.27.79,1.43,1.43,0,0,0,.48.52,1.33,1.33,0,0,0,.71.18,1.23,1.23,0,0,0,.7-.2,1.52,1.52,0,0,0,.49-.53,2.83,2.83,0,0,0,.28-.79,4.67,4.67,0,0,0,.09-1Zm-3.32-4.26a1.71,1.71,0,0,1,.48-.52,1.06,1.06,0,0,1,.6-.17,1.14,1.14,0,0,1,.47.08,1.75,1.75,0,0,1,.34.18l.29.18a.57.57,0,0,0,.3.08.51.51,0,0,0,.34-.14,1.92,1.92,0,0,0,.28-.34l.42.4a1.64,1.64,0,0,1-.48.52,1.05,1.05,0,0,1-.6.18,1.15,1.15,0,0,1-.48-.08,2.69,2.69,0,0,1-.34-.17l-.28-.19a.57.57,0,0,0-.3-.08.51.51,0,0,0-.34.14,1.81,1.81,0,0,0-.28.35Zm14.53,7.41h-3.6V55.81h3.6v.73H136.1v2h2.63v.72H136.1v2.19h2.74ZM150,60.44a1.66,1.66,0,0,1-.18.79,1.69,1.69,0,0,1-.51.56,2.37,2.37,0,0,1-.8.34,4.17,4.17,0,0,1-1,.12l-.5,0-.48,0-.43-.07-.37-.08v-.84a4.72,4.72,0,0,0,.82.21,6.53,6.53,0,0,0,1,.08,3.38,3.38,0,0,0,.71-.07,1.29,1.29,0,0,0,.48-.2.72.72,0,0,0,.27-.31,1,1,0,0,0,.09-.42A.66.66,0,0,0,149,60a1.3,1.3,0,0,0-.37-.33,3.23,3.23,0,0,0-.53-.26l-.61-.25-.61-.27a2.24,2.24,0,0,1-.53-.35,1.55,1.55,0,0,1-.38-.48,1.33,1.33,0,0,1-.15-.64,1.66,1.66,0,0,1,.14-.64,1.55,1.55,0,0,1,.42-.56,2.2,2.2,0,0,1,.74-.4,3.31,3.31,0,0,1,1.07-.15h.34l.38,0,.38.06.35.07v.78a5.13,5.13,0,0,0-.75-.16,4.76,4.76,0,0,0-.72-.06,1.91,1.91,0,0,0-1.09.25.77.77,0,0,0-.35.67.7.7,0,0,0,.15.44,1.42,1.42,0,0,0,.37.33,3.33,3.33,0,0,0,.53.26l.61.25c.21.08.41.17.61.28a2.24,2.24,0,0,1,.53.36,1.66,1.66,0,0,1,.38.48,1.39,1.39,0,0,1,.14.66Zm16.13,1.72h-3.61V55.81h3.61v.73h-2.74v2H166v.72h-2.63v2.19h2.74Zm11.56,0h-.84l-.13-4-.05-1.52-.3.88-.94,2.52h-.6L174,57.66l-.3-1,0,1.58-.11,3.89h-.82l.31-6.34h1l.86,2.39.28.81.27-.81.9-2.39h1.05Zm14.51-5.35v5.35H191V56.81h-1.74v-1H194v1Zm8.31,0v-1h4v1h-1.4v4.38h1.4v1h-4v-1h1.39V56.79Zm0,0"/><rect class="cls-17" x="123.92" y="25.25" width="4.88" height="4.88"/><rect class="cls-14" x="59.92" y="25.19" width="4.88" height="4.88"/><rect class="cls-17" x="59.92" y="25.23" width="4.88" height="4.88"/><rect class="cls-17" x="193.79" y="43.63" width="4.88" height="4.88"/><polygon class="cls-18" points="90.29 25.13 90.29 18.63 96.42 18.63 96.42 25.13 103.54 25.13 103.54 30.13 96.17 30.13 96.17 48.63 90.29 48.63 90.29 30.13 86.92 30.13 86.92 25.13 90.29 25.13"/><path class="cls-19" d="M121.79,25.25v5h-7.9a1,1,0,0,0-1,1V33.9a1,1,0,0,0,1,1H131a3.55,3.55,0,0,1,3.55,3.55v6.66A3.55,3.55,0,0,1,131,48.63H106.67V43.75h20.7a.8.8,0,0,0,.8-.8v-3.4a.8.8,0,0,0-.8-.8H110.62a4,4,0,0,1-4-4V29.2a4,4,0,0,1,4-4Z"/><path class="cls-20" d="M139,48.75V32.44a7.31,7.31,0,0,1,7.31-7.31h15.12a7.31,7.31,0,0,1,7.31,7.31V48.63h-5.87V33.49A3.49,3.49,0,0,0,159.42,30H148.54A3.49,3.49,0,0,0,145,33.49V48.75Z"/><path class="cls-21" d="M204.54,39.13V31.34a6.09,6.09,0,0,0-6.09-6.09H181a6.61,6.61,0,0,0-6.61,6.61V42A6.61,6.61,0,0,0,181,48.63h10.51v-5H181.22a1.3,1.3,0,0,1-1.3-1.3v-3.2Zm-24.12-7.77a1.23,1.23,0,0,1,1.23-1.23h15.16A1.23,1.23,0,0,1,198,31.36V34.5a.87.87,0,0,1-.87.87H180.42Z"/><polygon class="cls-22" points="210.54 18.63 210.54 25.25 207.17 25.25 207.17 30.13 210.54 30.13 210.54 48.63 216.79 48.63 216.79 30.13 224.54 30.13 224.54 25.13 216.54 25.13 216.54 18.63 210.54 18.63"/><path class="cls-23" d="M76.74,25.13H67.21a.17.17,0,0,0-.17.17V30a.17.17,0,0,0,.17.17h7.9a2.18,2.18,0,0,1,2.18,2.18v1.86a.17.17,0,0,1-.17.17H56.82a4.9,4.9,0,0,0-4.9,4.9v4.49a4.9,4.9,0,0,0,4.9,4.9H76.74a7,7,0,0,0,7-7v-9.4A7,7,0,0,0,76.74,25.13ZM77,41.27a3.1,3.1,0,0,1-3.1,3.1H61.4a3.1,3.1,0,0,1-3.1-3.1V40.15a2,2,0,0,1,2-2H76.88a.17.17,0,0,1,.17.17Z"/><g class="cls-24"><polygon class="cls-8" points="90.29 25.06 90.29 18.56 96.42 18.56 96.42 25.06 103.54 25.06 103.54 30.06 96.17 30.06 96.17 48.56 90.29 48.56 90.29 30.06 86.92 30.06 86.92 25.06 90.29 25.06"/><path class="cls-8" d="M121.79,25.19v5h-7.9a1,1,0,0,0-1,1v2.67a1,1,0,0,0,1,1H131a3.55,3.55,0,0,1,3.55,3.55V45A3.55,3.55,0,0,1,131,48.56H106.67V43.69h20.7a.8.8,0,0,0,.8-.8v-3.4a.8.8,0,0,0-.8-.8H110.62a4,4,0,0,1-4-4v-5.6a4,4,0,0,1,4-4Z"/><path class="cls-8" d="M139,48.69V32.38a7.31,7.31,0,0,1,7.31-7.31h15.12a7.31,7.31,0,0,1,7.31,7.31V48.56h-5.87V33.43a3.49,3.49,0,0,0-3.49-3.49H148.54A3.49,3.49,0,0,0,145,33.43V48.69Z"/><path class="cls-8" d="M204.54,39.06V31.28a6.09,6.09,0,0,0-6.09-6.09H181a6.61,6.61,0,0,0-6.61,6.61V42A6.61,6.61,0,0,0,181,48.56h10.51v-5H181.22a1.3,1.3,0,0,1-1.3-1.3v-3.2Zm-24.12-7.77a1.23,1.23,0,0,1,1.23-1.23h15.16A1.23,1.23,0,0,1,198,31.29v3.14a.87.87,0,0,1-.87.87H180.42Z"/><polygon class="cls-8" points="210.54 18.56 210.54 25.19 207.17 25.19 207.17 30.06 210.54 30.06 210.54 48.56 216.79 48.56 216.79 30.06 224.54 30.06 224.54 25.06 216.54 25.06 216.54 18.56 210.54 18.56"/><path class="cls-8" d="M76.74,25.06H67.21a.17.17,0,0,0-.17.17V29.9a.17.17,0,0,0,.17.17h7.9a2.18,2.18,0,0,1,2.18,2.18v1.86a.17.17,0,0,1-.17.17H56.82a4.9,4.9,0,0,0-4.9,4.9v4.49a4.9,4.9,0,0,0,4.9,4.9H76.74a7,7,0,0,0,7-7v-9.4A7,7,0,0,0,76.74,25.06ZM77,41.21a3.1,3.1,0,0,1-3.1,3.1H61.4a3.1,3.1,0,0,1-3.1-3.1V40.08a2,2,0,0,1,2-2H76.88a.17.17,0,0,1,.17.17Z"/></g></svg>