<svg viewBox="0 0 661 413" fill="none" xmlns="http://www.w3.org/2000/svg"><g clip-path="url(#clip0)"><path d="M128.605.75H.75v262.651h127.855V.75z" fill="#37363F" stroke="#00CF8A" stroke-width="1.5" stroke-miterlimit="10"/><path d="M128.604.75H.75v22.251h127.854V.751z" fill="#2D2B33" stroke="#00CF8A" stroke-width="1.5" stroke-miterlimit="10"/><path d="M10.692 9.194a2.692 2.692 0 1 0 0 5.384 2.692 2.692 0 0 0 0-5.384zM20.992 9.194a2.692 2.692 0 1 0 0 5.384 2.692 2.692 0 0 0 0-5.384zM31.29 9.194a2.692 2.692 0 1 0 0 5.384 2.692 2.692 0 0 0 0-5.384z" fill="#00CF8A"/><path d="M21.038 33.865h37.093-37.093z" fill="#3B3B3F"/><path d="M21.038 33.865h37.093" stroke="#474751" stroke-width="3" stroke-miterlimit="10"/><path d="M65.14 33.865h24.584-24.585z" fill="#3B3B3F"/><path d="M65.14 33.865h24.584" stroke="#474751" stroke-width="3" stroke-miterlimit="10"/><path d="M20.738 47.943h47.708-47.708z" fill="#3B3B3F"/><path d="M20.738 47.943h47.708" stroke="#FFC81A" stroke-width="3" stroke-miterlimit="10"/><path d="M20.738 62.022h66.814-66.814z" fill="#3B3B3F"/><path d="M20.738 62.022h66.814" stroke="#474751" stroke-width="3" stroke-miterlimit="10"/><path d="M20.738 76.1h37.797-37.797z" fill="#3B3B3F"/><path d="M20.738 76.1h37.797" stroke="#474751" stroke-width="3" stroke-miterlimit="10"/><path d="M65.808 76.1h34.96-34.96z" fill="#3B3B3F"/><path d="M65.808 76.1h34.96" stroke="#474751" stroke-width="3" stroke-miterlimit="10"/><path d="M21 90.178h80.568M20.738 104.257h53.978" stroke="#FFC81A" stroke-width="3" stroke-miterlimit="10"/><path d="M20.738 118.335H42.75 20.738z" fill="#3B3B3F"/><path d="M20.738 118.335H42.75" stroke="#474751" stroke-width="3" stroke-miterlimit="10"/><path d="M49.856 118.335h47.24-47.24z" fill="#3B3B3F"/><path d="M49.856 118.335h47.24" stroke="#474751" stroke-width="3" stroke-miterlimit="10"/><path d="M20.738 132.413h14.463-14.463z" fill="#3B3B3F"/><path d="M20.738 132.413h14.463" stroke="#474751" stroke-width="3" stroke-miterlimit="10"/><path d="M43.098 132.413h14.734-14.734z" fill="#3B3B3F"/><path d="M43.098 132.413h14.734M64.84 132.413h24.584" stroke="#474751" stroke-width="3" stroke-miterlimit="10"/><path d="M20.738 146.492h47.708-47.708z" fill="#3B3B3F"/><path d="M20.738 146.492h47.708" stroke="#FFC81A" stroke-width="3" stroke-miterlimit="10"/><path d="M546.197 12.727H435.432v193.121h110.765V12.728z" fill="#37363F" stroke="#00CF8A" stroke-width="1.5" stroke-miterlimit="10"/><path d="M546.197 12.727H435.432v22.251h110.765v-22.25z" fill="#2D2B33" stroke="#00CF8A" stroke-width="1.5" stroke-miterlimit="10"/><path d="M447.42 21.17a2.693 2.693 0 1 0 0 5.385 2.693 2.693 0 0 0 0-5.385zM457.72 21.17a2.692 2.692 0 1 0-.001 5.384 2.692 2.692 0 0 0 .001-5.384zM468.019 21.17a2.695 2.695 0 0 0-2.641 3.217 2.697 2.697 0 0 0 2.116 2.116 2.691 2.691 0 1 0 .525-5.333z" fill="#00CF8A"/><path d="M457.32 48.842h34.5M498.829 48.842h33.931" stroke="#474751" stroke-width="3" stroke-miterlimit="10"/><path d="M457.32 62.92h56.115" stroke="#FFC81A" stroke-width="3" stroke-miterlimit="10"/><path d="M457.32 76.998h64.221M457.32 91.077h35.204M499.796 91.077h34.96" stroke="#474751" stroke-width="3" stroke-miterlimit="10"/><path d="M457.32 106.052h78.609M457.32 120.131h51.385" stroke="#FFC81A" stroke-width="3" stroke-miterlimit="10"/><path d="M457.32 134.209h19.419M483.845 134.209h47.24" stroke="#474751" stroke-width="3" stroke-miterlimit="10"/><path d="M450.112 46.261h-5.16v5.16h5.16v-5.16zM450.112 60.34h-5.16v5.16h5.16v-5.16zM450.112 74.418h-5.16v5.16h5.16v-5.16zM450.112 88.496h-5.16v5.16h5.16v-5.16zM450.112 103.472h-5.16v5.16h5.16v-5.16zM450.112 117.55h-5.16v5.161h5.16v-5.161zM450.112 131.629h-5.16v5.16h5.16v-5.16z" fill="#474751"/><path d="M457.32 149.308h34.5M498.829 149.308h33.931" stroke="#474751" stroke-width="3" stroke-miterlimit="10"/><path d="M457.32 163.386h56.115" stroke="#FFC81A" stroke-width="3" stroke-miterlimit="10"/><path d="M457.32 177.464h54.221M457.32 191.543h35.204" stroke="#474751" stroke-width="3" stroke-miterlimit="10"/><path d="M450.112 146.728h-5.16v5.16h5.16v-5.16zM450.112 160.806h-5.16v5.16h5.16v-5.16zM450.112 174.884h-5.16v5.161h5.16v-5.161zM450.112 188.963h-5.16v5.16h5.16v-5.16z" fill="#474751"/><path d="M488.705 293.266h-111.33v118.238h111.33V293.266z" fill="#37363F" stroke="#00CF8A" stroke-width="1.5" stroke-miterlimit="10"/><path d="M488.705 293.266h-111.33v22.25h111.33v-22.25z" fill="#2D2B33" stroke="#00CF8A" stroke-width="1.5" stroke-miterlimit="10"/><path d="M388.363 301.709a2.694 2.694 0 0 0-1.904 4.596 2.688 2.688 0 0 0 2.934.583 2.687 2.687 0 0 0 1.457-3.517 2.684 2.684 0 0 0-2.487-1.662zM398.663 301.709a2.691 2.691 0 1 0 0 5.383 2.691 2.691 0 0 0 0-5.383zM408.962 301.709a2.691 2.691 0 1 0 0 5.383 2.691 2.691 0 0 0 0-5.383z" fill="#00CF8A"/><path d="M396.844 327.38h39.92-39.92z" fill="#3B3B3F"/><path d="M396.844 327.38h39.92M443.771 327.38h26.585" stroke="#474751" stroke-width="3" stroke-miterlimit="10"/><path d="M396.844 341.459h59.534-59.534z" fill="#3B3B3F"/><path d="M396.844 341.459h59.534" stroke="#FFC81A" stroke-width="3" stroke-miterlimit="10"/><path d="M396.844 355.537h69.64-69.64z" fill="#3B3B3F"/><path d="M396.844 355.537h69.64" stroke="#474751" stroke-width="3" stroke-miterlimit="10"/><path d="M396.844 369.615h40.623-40.623z" fill="#3B3B3F"/><path d="M396.844 369.615h40.623M444.739 369.615H472.7" stroke="#474751" stroke-width="3" stroke-miterlimit="10"/><path d="M396.844 383.693H459.5M396.844 397.772h53.187" stroke="#FFC81A" stroke-width="3" stroke-miterlimit="10"/><path d="M390.346 324.843h-5.075v5.075h5.075v-5.075zM390.346 338.921h-5.075v5.075h5.075v-5.075zM390.346 353h-5.075v5.074h5.075V353zM390.346 367.078h-5.075v5.074h5.075v-5.074zM390.346 381.156h-5.075v5.075h5.075v-5.075zM390.346 395.235h-5.075v5.074h5.075v-5.074z" fill="#474751"/><path d="M330.002 33.918a6.55 6.55 0 0 1-4.095 6.023 6.555 6.555 0 1 1 4.095-6.023zm-3.117-19.69l-6.555-.053-.043 5.294c-1.62.356-3.169.984-4.579 1.857l-3.716-3.776-4.673 4.598 3.716 3.777a14.67 14.67 0 0 0-1.931 4.547l-5.293-.043-.054 6.554 5.294.043c.356 1.62.984 3.17 1.858 4.58l-3.777 3.715 4.598 4.674 3.777-3.717a14.652 14.652 0 0 0 4.547 1.931l-.043 5.294 6.555.053.043-5.294a14.643 14.643 0 0 0 4.576-1.857l3.718 3.778 4.673-4.598-3.716-3.777a14.657 14.657 0 0 0 1.932-4.549l5.294.043.053-6.555-5.294-.043a14.608 14.608 0 0 0-1.858-4.577l3.777-3.716-4.598-4.672-3.776 3.714a14.66 14.66 0 0 0-4.548-1.932l.043-5.293zM541.957 341.549a6.584 6.584 0 1 1-13.167-.108 6.584 6.584 0 0 1 13.167.108zm-3.132-19.779l-6.584-.054-.044 5.318a14.752 14.752 0 0 0-4.6 1.866l-3.732-3.793-4.694 4.618 3.733 3.794a14.694 14.694 0 0 0-1.94 4.568l-5.318-.044-.053 6.585 5.317.043a14.766 14.766 0 0 0 1.866 4.6l-3.793 3.732 4.618 4.695 3.794-3.734c1.402.9 2.946 1.556 4.568 1.94l-.043 5.317 6.584.054.043-5.318a14.692 14.692 0 0 0 4.597-1.866l3.735 3.795 4.693-4.619-3.732-3.793a14.767 14.767 0 0 0 1.94-4.569l5.317.043.054-6.584-5.318-.044a14.707 14.707 0 0 0-1.866-4.598l3.794-3.732-4.618-4.693-3.793 3.73a14.747 14.747 0 0 0-4.569-1.94l.044-5.317zM47.124 192.535a7.142 7.142 0 0 1-8.589 6.933 7.139 7.139 0 1 1 8.59-6.933zm-3.396-21.446l-7.139-.058-.047 5.766a15.957 15.957 0 0 0-4.987 2.023l-4.047-4.113-5.09 5.008 4.047 4.113a15.964 15.964 0 0 0-2.103 4.953l-5.765-.047-.058 7.139 5.765.047a15.983 15.983 0 0 0 2.024 4.988l-4.114 4.047 5.008 5.09 4.114-4.049a15.973 15.973 0 0 0 4.953 2.104l-.047 5.766 7.139.058.047-5.766a15.964 15.964 0 0 0 4.985-2.023l4.049 4.115 5.09-5.009-4.048-4.113a15.986 15.986 0 0 0 2.104-4.954l5.766.047.058-7.14-5.766-.046a15.933 15.933 0 0 0-2.023-4.986l4.113-4.047-5.008-5.089-4.112 4.045a15.985 15.985 0 0 0-4.954-2.104l.046-5.765z" fill="#2D2B33" stroke="#42424C" stroke-width="1.5" stroke-miterlimit="10"/><path d="M353.073 313.444h-90.554v-83H246.21" stroke="#00CF8A" stroke-width="2" stroke-miterlimit="10" stroke-dasharray="2 4"/><path d="M365.302 312.318l-5.93-3.424a1.3 1.3 0 0 0-1.951 1.126v6.848a1.303 1.303 0 0 0 .65 1.127 1.306 1.306 0 0 0 1.301 0l5.93-3.424a1.303 1.303 0 0 0 0-2.253zM606.906 303.948l-3.424 5.93a1.303 1.303 0 0 0 1.127 1.952h6.848a1.304 1.304 0 0 0 1.301-1.301c0-.229-.06-.453-.174-.651l-3.424-5.93a1.312 1.312 0 0 0-1.127-.65 1.3 1.3 0 0 0-1.127.65zM191.327 189.601l3.424-5.93a1.3 1.3 0 0 0-1.126-1.951h-6.849a1.302 1.302 0 0 0-1.3 1.301c0 .228.06.453.174.65l3.424 5.93c.114.198.278.362.476.476a1.293 1.293 0 0 0 1.301 0c.198-.114.362-.278.476-.476zM427.477 88.351l-5.93-3.424a1.302 1.302 0 0 0-1.952 1.127v6.848a1.298 1.298 0 0 0 1.952 1.127l5.93-3.425a1.305 1.305 0 0 0 .65-1.126 1.302 1.302 0 0 0-.65-1.127zM462.869 216.142l-3.424 5.93a1.302 1.302 0 0 0 1.126 1.952h6.848c.229-.001.453-.061.651-.175a1.294 1.294 0 0 0 .65-1.127c0-.228-.06-.452-.174-.65l-3.424-5.93a1.294 1.294 0 0 0-1.127-.65 1.302 1.302 0 0 0-1.126.65zM365.302 371.708l-5.93-3.424a1.3 1.3 0 0 0-1.951 1.127v6.848a1.302 1.302 0 0 0 1.301 1.3 1.3 1.3 0 0 0 .65-.174l5.93-3.424a1.304 1.304 0 0 0 .651-1.127 1.302 1.302 0 0 0-.651-1.126z" fill="#00CF8A"/><path d="M463.907 283.202l.246-57.444M353.065 372.834H26.788v-97.759" stroke="#00CF8A" stroke-width="2" stroke-miterlimit="10" stroke-dasharray="2 4"/><path d="M26.7 257.747l-6.147 6.147 6.146 6.147 6.147-6.147-6.147-6.147z" fill="#00CF8A" stroke="#42424C" stroke-width="1.5" stroke-miterlimit="10"/><path d="M463.891 286.935l-6.173 6.12 6.12 6.173 6.173-6.12-6.12-6.173z" fill="#00CF8A"/><path d="M463.878 289.877l-3.218 3.191 3.191 3.218 3.218-3.191-3.191-3.218z" fill="#2C2931"/><path d="M488.705 391.625l-6.146 6.147 6.146 6.146 6.147-6.146-6.147-6.147z" fill="#00CF8A"/><path d="M488.705 394.705l-3.066 3.067 3.066 3.067 3.067-3.067-3.067-3.067z" fill="#2C2931"/><path d="M128.605 43.748l-6.147 6.146 6.147 6.147 6.146-6.147-6.146-6.146z" fill="#00CF8A"/><path d="M128.605 46.605l-3.29 3.29 3.29 3.29 3.289-3.29-3.289-3.29z" fill="#2C2931"/><path d="M128.605 94.996l-6.147 6.147 6.147 6.146 6.146-6.146-6.146-6.147z" fill="#00CF8A"/><path d="M128.605 97.605l-3.539 3.538 3.539 3.538 3.538-3.538-3.538-3.538z" fill="#2C2931"/><path d="M139.976 101.143H190.2v77.862M608.033 309.302v88.542H498.452M423.059 89.761H233.083V49.546h-96.724" stroke="#00CF8A" stroke-width="2" stroke-miterlimit="10" stroke-dasharray="2 4"/><path d="M566.945 150.975v7.066h27.026a15.37 15.37 0 0 1 30.744 0h27.026v-7.066h-11.413a31.616 31.616 0 0 0-4.086-9.838l8.081-8.078-9.995-9.995-8.078 8.078a31.6 31.6 0 0 0-9.84-4.085v-11.414h-14.133v11.414a31.58 31.58 0 0 0-9.837 4.083l-8.077-8.077-9.996 9.994 8.077 8.077a31.654 31.654 0 0 0-4.085 9.841h-11.414z" fill="#2D2B33" stroke="#00CF8A" stroke-width="1.5" stroke-miterlimit="10"/><path d="M585.953 157.211a23.406 23.406 0 0 1 46.781 0" stroke="#37363F" stroke-width="3" stroke-linejoin="bevel"/><path d="M38.982 256.054v7.43h28.421a16.164 16.164 0 0 1 32.33 0h28.42v-7.43h-12.002a33.217 33.217 0 0 0-4.296-10.345l8.498-8.496-10.511-10.51-8.495 8.494a33.262 33.262 0 0 0-10.348-4.296v-12.002H76.137v12.002a33.224 33.224 0 0 0-10.344 4.295l-8.495-8.495-10.51 10.51 8.493 8.494a33.276 33.276 0 0 0-4.296 10.349H38.982z" fill="#2D2B33" stroke="#00CF8A" stroke-width="1.5" stroke-miterlimit="10"/><path d="M108.165 262.612a24.612 24.612 0 0 0-49.194 0" stroke="#37363F" stroke-width="3" stroke-linejoin="bevel"/><path d="M315.673 317.304v-7.722l6.687-3.859 6.687 3.859v7.722l-6.687 3.862-6.687-3.862z" fill="#2D2B33"/><path d="M322.36 306.589l5.937 3.427v6.855l-5.937 3.429-5.937-3.429v-6.855l5.937-3.427zm0-1.732l-7.437 4.293v8.587l7.437 4.295 7.437-4.295v-8.587l-7.437-4.293z" fill="#FFC81A"/><path d="M280.258 93.62v-7.721l6.686-3.86 6.687 3.86v7.721l-6.687 3.862-6.686-3.862zM141.523 376.695v-7.723l6.687-3.859 6.687 3.859v7.723l-6.687 3.86-6.687-3.86z" fill="#2D2B33"/><path d="M148.21 365.979l5.937 3.427v6.855l-5.937 3.429-5.937-3.429v-6.855l5.937-3.427zm0-1.732l-7.437 4.293v8.587l7.437 4.295 7.437-4.295v-8.587l-7.437-4.293zM278.994 310.939v5.01l4.338 2.505 4.338-2.505v-5.01l-4.338-2.504-4.338 2.504zM603.694 350.84v5.01l4.339 2.505 4.338-2.505v-5.01l-4.338-2.504-4.339 2.504z" fill="#00CF8A"/><path d="M367.298 87.068v5.384l4.662 2.692 4.662-2.692v-5.384l-4.662-2.691-4.662 2.691zM185.862 119.884v5.009l4.338 2.506 4.339-2.506v-5.009l-4.339-2.505-4.338 2.505zM62.02 370.329v5.01l4.339 2.505 4.338-2.505v-5.01l-4.338-2.504-4.339 2.504z" fill="#FFC81A"/><path d="M266.977 375.163v-4.658l4.033-2.327 4.034 2.327v4.658l-4.034 2.329-4.033-2.329z" fill="#2D2B33"/><path d="M271.011 369.043l3.283 1.895v3.791l-3.283 1.896-3.283-1.896v-3.791l3.283-1.895zm0-1.732l-4.783 2.761v5.523l4.783 2.763 4.783-2.763v-5.523l-4.783-2.761z" fill="#00CF8A"/><path d="M202.647 51.873v-4.656l4.033-2.329 4.034 2.329v4.656l-4.034 2.329-4.033-2.329z" fill="#2D2B33"/><path d="M206.68 45.754l3.283 1.895v3.792l-3.283 1.896-3.283-1.896v-3.792l3.283-1.895zm0-1.732l-4.783 2.761v5.524l4.783 2.762 4.783-2.762v-5.524l-4.783-2.76z" fill="#FFC81A"/><path d="M563.299 400.875v-6.064l5.25-3.03 5.25 3.03v6.064l-5.25 3.031-5.25-3.031z" fill="#2D2B33"/><path d="M568.549 392.647l4.5 2.598v5.196l-4.5 2.599-4.5-2.599v-5.196l4.5-2.598zm0-1.732l-6 3.464v6.928l6 3.465 6-3.465v-6.928l-6-3.464z" fill="#FFC81A"/><path d="M236.21 195.872H108.355v136.045H236.21V195.872z" fill="#37363F" stroke="#00CF8A" stroke-width="1.5" stroke-miterlimit="10"/><path d="M236.21 195.871H108.355v22.251H236.21v-22.251z" fill="#2D2B33" stroke="#00CF8A" stroke-width="1.5" stroke-miterlimit="10"/><path d="M119.344 204.314a2.691 2.691 0 1 0 0 5.383 2.691 2.691 0 0 0 0-5.383zM129.644 204.314a2.691 2.691 0 1 0 0 5.383 2.691 2.691 0 0 0 0-5.383zM139.943 204.314a2.691 2.691 0 1 0 0 5.383 2.691 2.691 0 0 0 0-5.383z" fill="#00CF8A"/><path d="M127.94 229.986h37.093-37.093z" fill="#3B3B3F"/><path d="M127.94 229.986h37.093" stroke="#474751" stroke-width="3" stroke-miterlimit="10"/><path d="M172.042 229.986h48.584-48.584z" fill="#3B3B3F"/><path d="M172.042 229.986h48.584" stroke="#474751" stroke-width="3" stroke-miterlimit="10"/><path d="M127.94 244.513h77.708-77.708z" fill="#3B3B3F"/><path d="M127.94 244.513h77.708" stroke="#FFC81A" stroke-width="3" stroke-miterlimit="10"/><path d="M127.94 259.04h56.814" stroke="#474751" stroke-width="3" stroke-miterlimit="10"/><path d="M127.604 273.567h37.797-37.797z" fill="#3B3B3F"/><path d="M127.604 273.567h37.797" stroke="#474751" stroke-width="3" stroke-miterlimit="10"/><path d="M172.674 273.567h34.96-34.96z" fill="#3B3B3F"/><path d="M172.674 273.567h34.96" stroke="#474751" stroke-width="3" stroke-miterlimit="10"/><path d="M127.94 288.094h71.169M127.604 302.621h43.978" stroke="#FFC81A" stroke-width="3" stroke-miterlimit="10"/><path d="M127.604 317.148h22.012-22.012z" fill="#3B3B3F"/><path d="M127.604 317.148h22.012M156.723 317.148h47.239" stroke="#474751" stroke-width="3" stroke-miterlimit="10"/><path d="M122.025 227.305h-5.362v5.362h5.362v-5.362zM122.025 241.832h-5.362v5.362h5.362v-5.362zM122.025 256.359h-5.362v5.362h5.362v-5.362zM122.025 270.886h-5.362v5.362h5.362v-5.362zM122.025 285.413h-5.362v5.362h5.362v-5.362zM122.025 299.94h-5.362v5.362h5.362v-5.362zM122.025 314.467h-5.362v5.362h5.362v-5.362z" fill="#474751"/><path d="M659.954 157.944H532.1v136.045h127.854V157.944z" fill="#37363F" stroke="#00CF8A" stroke-width="1.5" stroke-miterlimit="10"/><path d="M659.954 157.943H532.1v22.251h127.854v-22.251z" fill="#2D2B33" stroke="#00CF8A" stroke-width="1.5" stroke-miterlimit="10"/><path d="M543.088 166.387a2.69 2.69 0 0 0-1.904 4.596 2.689 2.689 0 0 0 2.934.583 2.692 2.692 0 0 0-1.03-5.179zM553.387 166.387a2.687 2.687 0 0 0-2.487 1.661 2.691 2.691 0 0 0 3.517 3.518 2.693 2.693 0 0 0-1.03-5.179zM563.687 166.387a2.693 2.693 0 1 0-.002 5.386 2.693 2.693 0 0 0 .002-5.386z" fill="#00CF8A"/><path d="M551.684 192.058h37.093-37.093z" fill="#3B3B3F"/><path d="M551.684 192.058h37.093" stroke="#474751" stroke-width="3" stroke-miterlimit="10"/><path d="M595.785 192.058h48.585-48.585z" fill="#3B3B3F"/><path d="M595.785 192.058h48.585" stroke="#474751" stroke-width="3" stroke-miterlimit="10"/><path d="M551.684 206.585h77.708-77.708z" fill="#3B3B3F"/><path d="M551.684 206.585h77.708" stroke="#FFC81A" stroke-width="3" stroke-miterlimit="10"/><path d="M551.684 221.112h56.814" stroke="#474751" stroke-width="3" stroke-miterlimit="10"/><path d="M551.349 235.639h37.796-37.796z" fill="#3B3B3F"/><path d="M551.349 235.639h37.796" stroke="#474751" stroke-width="3" stroke-miterlimit="10"/><path d="M596.418 235.639h34.96-34.96z" fill="#3B3B3F"/><path d="M596.418 235.639h34.96" stroke="#474751" stroke-width="3" stroke-miterlimit="10"/><path d="M551.684 250.166h71.169M551.349 264.693h43.978" stroke="#FFC81A" stroke-width="3" stroke-miterlimit="10"/><path d="M551.349 279.22h22.011-22.011z" fill="#3B3B3F"/><path d="M551.349 279.22h22.011M580.467 279.22h47.24" stroke="#474751" stroke-width="3" stroke-miterlimit="10"/><path d="M545.769 189.377h-5.362v5.362h5.362v-5.362zM545.769 203.904h-5.362v5.362h5.362v-5.362zM545.769 218.431h-5.362v5.362h5.362v-5.362zM545.769 232.958h-5.362v5.362h5.362v-5.362zM545.769 247.485h-5.362v5.362h5.362v-5.362zM545.769 262.012h-5.362v5.362h5.362v-5.362zM545.769 276.539h-5.362v5.362h5.362v-5.362z" fill="#474751"/><path d="M236.21 224.298l-6.147 6.146 6.147 6.147 6.146-6.147-6.146-6.146z" fill="#00CF8A"/><path d="M236.209 226.79l-3.653 3.654 3.653 3.654 3.654-3.654-3.654-3.654z" fill="#2C2931"/><path opacity=".03" d="M275.671 233.517V164.59l59.691-34.456 59.69 34.456v68.926l-59.69 34.472-59.691-34.471z" fill="#fff"/><path d="M385.681 170.196v58.106l-50.319 29.058-50.32-29.058v-58.106l50.32-29.047 50.319 29.047z" fill="#00CF8A"/><path d="M335.362 141.149l-50.32 29.047 50.32 29.06v-58.107z" fill="#26D69B"/><path d="M335.362 199.254l-50.32 29.048 50.32 29.058v-58.104" fill="#00BC6E"/><path d="M385.681 170.196l-50.318 29.059 50.318 29.047v-58.106z" fill="#00B25F"/><path d="M335.362 141.149v58.105l50.319-29.058-50.319-29.047z" fill="#0FBD77"/><path d="M335.363 199.255l-.001.001v58.104l50.319-29.06-50.319-29.046" fill="#009446"/><path d="M335.362 199.254v.002l.001-.001-.001-.001z" fill="#09A456"/><path d="M307.806 183.681l8.299-4.791-7.187-4.151-8.301 4.791v15.455l-4.268 4.269 4.268 4.269v15.454l8.3 4.793 7.188-4.15-8.299-4.792v-31.147zM370.107 194.985V179.53l-8.302-4.792-5.384 3.109-1.804 1.042 8.301 4.792v31.147l-8.299 4.792 7.188 4.149 8.3-4.792v-15.454l4.268-4.269-4.268-4.269z" fill="#fff"/><path d="M355.729 187.492l-20.367-11.756-20.368 11.756v23.518l20.368 11.762 20.367-11.762v-23.518zm-7.67 3.873l-12.698 7.333-12.697-7.333 12.697-7.33 12.698 7.33zm-12.698 23.108l-13.179-7.611v-7.473l13.179 7.612 13.179-7.612v7.472l-13.179 7.612z" fill="#fff"/><path d="M13.43 31.173H8.047v5.384h5.385v-5.384zM13.43 45.251H8.047v5.385h5.385V45.25zM13.43 59.33H8.047v5.384h5.385V59.33zM13.43 73.408H8.047v5.384h5.385v-5.384zM13.43 87.486H8.047v5.385h5.385v-5.385zM13.43 101.565H8.047v5.384h5.385v-5.384zM13.43 115.643H8.047v5.384h5.385v-5.384zM13.43 129.721H8.047v5.385h5.385v-5.385zM13.43 143.799H8.047v5.385h5.385v-5.385z" fill="#42424C"/><path d="M286.945 82.905l5.936 3.427v6.856l-5.936 3.428-5.937-3.428v-6.856l5.937-3.427zm0-1.732l-7.437 4.293v8.588l7.437 4.294 7.436-4.294v-8.588l-7.436-4.293z" fill="#00CF8A"/></g><defs><clipPath id="clip0"><path fill="#fff" d="M0 0h660.704v412.254H0z"/></clipPath></defs></svg>